<svg viewBox="0 0 442 442" fill="none" xmlns="http://www.w3.org/2000/svg" role="img" aria-label="Covéa">
  <path d="M199.939 210.395C189.902 213.943 176.792 217.756 157.591 217.756C118.069 217.756 88.4143 194.4 88.4143 156.473C88.4143 122.283 113.117 94.5059 158.824 94.5059C177.93 94.5059 191.268 97.997 199.939 101.886V76.1967C189.447 73.2559 174.818 70.8083 158.824 70.8083C93.7647 70.8083 51.777 107.37 51.777 157.82C51.777 208.27 90.8998 241.454 151.007 241.454C171.612 241.454 188.802 238.247 199.939 234.908V210.376V210.395Z" fill="#fff"></path>
  <path d="M390.195 154.784C390.195 215.384 339.138 241.795 290.965 241.795C237.024 241.795 195.454 209.294 195.454 157.497C195.454 102.645 239.092 70.4857 294.266 70.4857C349.44 70.4857 390.195 104.675 390.195 154.784ZM230.877 156.472C230.877 192.37 256.491 219.445 292.616 219.445C328.741 219.445 354.354 192.692 354.354 155.789C354.354 128.032 337.127 92.8172 293.469 92.8172C249.812 92.8172 230.896 125.318 230.896 156.472H230.877Z" fill="#fff"></path>
  <path d="M298.217 133.667C297.913 134.16 284.879 156.397 273.305 169.336C267.48 175.863 261.674 181.707 257.747 185.539H277.176C306.603 163.986 322.616 142.224 328.251 133.686H298.217V133.667Z" fill="#fff"></path>
  <path d="M77.9358 259.118L104.233 323.494C108.653 333.91 112.258 343.378 115.028 352.846H115.863C118.918 343.378 122.788 333.91 127.209 323.494L153.24 259.118H178.702L126.109 373.678H102.848L51.9045 259.118H77.9358Z" fill="#fff"></path>
  <path d="M227.49 256.52C226.219 256.52 224.967 256.557 223.734 256.614C188.026 258.36 166.397 286.308 166.397 319.7C166.397 353.093 187.704 373.338 223.734 375.804C225.916 375.956 228.154 376.032 230.45 376.032C248.209 376.032 261.206 373.262 269.82 370.378V354.251L269.763 354.023C260.883 357.343 250.657 359.943 233.695 359.943C230.298 359.943 226.959 359.696 223.734 359.203C204.533 356.262 189.468 343.815 189.013 319.7H282.854H283.423C283.423 319.7 291.07 256.52 227.509 256.52H227.49ZM261.168 305.281H190.17C192.067 291.222 202.446 272.476 225.916 271.489C226.561 271.47 227.206 271.433 227.87 271.433C263.122 271.433 261.168 305.281 261.168 305.281Z" fill="#fff"></path>
  <path d="M387.821 346.225V303.383C387.821 280.426 377.86 256.52 336.878 256.52C322.477 256.52 308.703 259.441 298.097 264.128V279.686L298.4 280.445C307.811 275.246 320.827 271.926 333.273 271.926C360.689 271.926 363.725 288.964 363.725 298.431V300.803C311.947 300.575 283.165 315.716 283.165 343.398C283.165 359.962 297.015 376.298 324.128 376.298C343.234 376.298 357.635 368.253 365.11 359.26H365.945L367.88 373.698H390.022C388.352 365.881 387.802 356.186 387.802 346.244L387.821 346.225ZM364.294 335.107C364.294 337.232 363.744 339.603 362.909 341.728C359.039 351.424 347.958 360.891 330.522 360.891C318.056 360.891 307.545 354.497 307.545 341.007C307.545 318.752 337.713 314.729 364.294 315.204V335.088V335.107Z" fill="#fff"></path>
</svg>
