<?xml version="1.0" encoding="UTF-8"?>
<svg id="Calque_1" xmlns="http://www.w3.org/2000/svg" version="1.1" viewBox="0 0 822 533.5">
  <!-- Generator: Adobe Illustrator 29.1.0, SVG Export Plug-In . SVG Version: 2.1.0 Build 142)  -->
  <defs>
    <style>
      .st0 {
        fill: #888063;
      }

      .st1 {
        fill: #312f39;
      }
    </style>
  </defs>
  <path class="st0" d="M425.4,169.2c-11.5,8.9-23.4,17.4-35.5,25.5-1.4-8.2-2.5-16.4-3.3-24.6l-.3-5.3-.2-2.7v-7.9c-.1,0,.2-5.2.2-5.2,0-.8,0-1.7.2-2.6l.4-2.5c.2-1.7.3-3.4.8-5,1.2-6.7,3.6-13,6.9-18.4s7.7-10,13.3-12.8c11.8-5.9,26.1-2.7,34.4,7.6,4,4.8,6.8,10.8,8.8,17l.7,2.5.6,2.4c.3,1.7.8,3.3,1,5l.5,4.4c-9.4,7.7-19,15.2-28.5,22.6M567.3,117.9l-.6-5.8c-.3-2.2-.7-4.4-1.3-6.5-1.3-4.7-3.7-9-7-12.5-3.6-3.7-8.2-6.1-13.3-7-4.9-1-9.7-.3-14,1.2-3.2,1-6.2,2.5-8.9,4.4l-1.2,1-1.2.8-8.8,6.7c-5.8,4.5-11.6,9.1-17.3,13.8l-26.5,21.7-.4-1.9-.7-3-1-3c-2.7-7.9-7-15.5-13.4-21.5-6.3-6.1-14.3-10.3-23-11.8l-3.1-.5-3.2-.2c-2.2-.2-4.3,0-6.5,0s-2.1.4-3.2.5l-3.2.6-3.1.8-1.6.5-1.5.6c-8.2,3-15.5,8.7-20.6,15.7-5,7.1-8,15.2-9.7,23.2-.5,2-.7,4-1,6l-.5,3-.3,3.1-.3,6v9l.3,3,.5,5.9c1.2,10.5,2.9,21,5.2,31.3-7.9,4.8-16,9.4-24.3,13.5l-4.8,2.4-5,2.3c-1.6.8-3.2,1.6-4.9,2.2-1.6.7-3.3,1.5-4.9,2-2.8,1.2-5.8,1.9-8.9,2-2.7-.1-5-.8-7-2-4.7-3.5-8.5-8.1-11-13.4-3.2-5.9-5.7-12.2-7.2-18.7-6.3-25.6-8.1-52.1-5.5-78.4l.2-1.2.2-1,.5-2.2,1.4-4c.6-1.1,1.3-2.1,2-3,1.4-1.9,3-3.3,5-4.1,2.3-1,4.9-1.2,7.3-.6,1.3.3,2.6.8,3.8,1.3l.9.5.4.3h.2c0,0,.3.3.3.3l2.2,1.5c10.5,7,20.6,14.6,30.3,22.8l11.1-4.6.2-.2c-11.3-9.3-22.6-18.9-34.5-27.9l-2.3-1.7-.3-.2-.3-.2-.7-.5-1.5-1c-6.4-3.6-13.8-4.8-20.9-3.4-7.5,1.8-13.8,6.9-17,14-1,2-1.8,4.2-2.5,6.3l-.8,3.2-.3,1.6-.3,1.5c-1.1,5.7-1.6,11.6-1.7,17.4-.8,22.8,1.6,45.6,7.2,67.7,1.6,5.7,3.7,11.4,6.2,16.8,2.5,5.7,5.9,10.9,10,15.5,3,3.2,6.7,6.3,11.2,8.2,4.5,1.9,9.4,2.6,14.3,1.9,4.5-.6,8.6-2,12.3-3.8l5-2.4,5.1-2.4c1.7-.8,3.3-1.6,5-2.4l5-2.6c26.2-13.9,51.1-30.1,74.6-48.2,7.5-5.7,14.8-11.5,22-17.4v2.4c-.4,3.6-.5,7-1,10.7-1.9,14.5-4.2,29-8.4,42.7-3,10-7.3,19.6-12.8,28.5-1.7,2.6-3.7,5-6.1,7-1.1.8-2.3,1.5-3.4,2-1.1.4-2,.5-2.8.4-2.5-.5-4.8-1.7-6.6-3.5l-1.7-1.5-1.5-1.8-1.7-2.2c-6-7.4-18.6-4.5-18.9-4.4,2.1,3.5,4.4,6.9,6.9,10.2,2.6,3.4,5.6,6.6,8.9,9.3,1.7,1.5,3.7,2.7,5.9,3.9,4.8,2.6,10.5,3.1,15.7,1.2,2.3-.8,4.5-1.9,6.5-3.3,6.9-5.2,12.6-11.8,16.8-19.3,4-7.2,6.8-14.6,9.2-22.1,4.2-12.9,7-26.2,8.6-39.7l.7-5.7c.5-3.8.7-7.8,1-11.7.2-2,0-4,0-6s.2-4,0-6l-.3-3.5c10.4-8.7,20.8-17.5,31.3-26,5.8-4.5,11.5-9,17.3-13.3,3-2.1,5.8-4.3,8.8-6.3l1.1-.8,1-.6,2-1.1c1.3-.6,2.6-1.1,4-1.5,2.7-.6,5.4-.6,7.7,0s4,2,5.4,3.8,2.4,4.1,3,6.8c.5,3.1.8,6.3,1,9.4.6,28.4-2.5,56.7-9.2,84.3-.6,2.5-1.4,5-2.2,7.4l-.4,1.1-.4,1c-1.2,2.8-2.6,5.2-4.4,7-1.7,1.8-3.9,3.3-6.3,4.1-2.5,1-5.3,1.3-8.3,1.3-4.8,0-9.5-1-14-2.8-4.3-1.5-8.5-3.3-12.6-5.2-9-3.7-16,2.8-17,3.6h0c0,.1,9.5,5.9,9.5,5.9,6.7,3.9,13.7,7.2,21,9.9,4,1.2,8,2.1,12.4,2.4,4.3.3,8.9,0,13.4-1.4s8.8-4,12.2-7.3,6-7.3,7.7-11.2l.7-1.5.5-1.4c1.2-2.7,2.2-5.5,3-8.3,4.3-14.5,7.2-29.4,8.7-44.5,1.6-15,2.3-30,1.2-45.3"/>
  <path id="logmar" class="st1" d="M121,435.5h-21v-59.7h21c22.4,0,36.8,11.7,36.8,29.9s-9.7,29.8-36.7,29.8M121.9,363.1h-36.7v85.2h36.8c31.5,0,51.9-16.8,51.9-42.8s-13.7-42.4-52-42.4M304.8,417.7c0,13-10.6,20.4-29,20.4s-29-7.9-29-20.4v-41c0-7.5-6.1-13.6-13.7-13.6h-1v54.4c0,20,16.7,32.5,43.6,32.5s43.8-12.1,43.8-32.5v-54.4h-14.7v54.6ZM422.4,434.2l-25.9-59.7c-3-7-9.9-11.4-17.5-11.4h-3.5l37,85.2h19.8l37-85.2h-16l-30.9,71.1ZM544,409.7l14-32.5,14.2,32.5h-28.2ZM548.2,363.1l-37,85.2h16l12-27.5h37.8l7,16c3,7,9.9,11.5,17.5,11.5h3.5l-37-85.3h-19.8ZM684.1,435.8v-72.7h-14.8v85.2h67.4v-12.5h-52.6ZM310.5,315c0-8,6.2-14.4,14.6-14.4s8,1.3,10.8,3.8l-3.8,4.6c-2.1-1.8-4-2.8-7.2-2.8s-8,4-8,8.6h0c0,5.1,3.5,8.9,8.4,8.9s4.2-.5,5.7-1.7v-4h-6v-5.2h12v12c-3.3,2.9-7.5,4.5-11.8,4.5-8.6,0-14.6-6.1-14.6-14.3M353,301h12.6c3.5,0,6.3,1,8,2.9,1.6,1.7,2.5,4,2.4,6.3,0,4.6-2.4,7.4-5.9,8.7l6.8,9.9h-7.2l-5.9-8.9h-4.8v8.9h-6v-27.8ZM365.2,314.5c3,0,4.7-1.6,4.7-3.9s-1.8-4-4.8-4h-6v8h6.1ZM387.8,315c0-8,6.2-14.4,14.7-14.4s14.7,6.4,14.7,14.2h0c0,8-6.2,14.5-14.8,14.5s-14.6-6.4-14.6-14.3M410.8,315c0-4.8-3.4-8.8-8.4-8.8s-8.3,3.9-8.3,8.6h0c0,4.9,3.5,8.8,8.4,8.8s8.3-3.8,8.3-8.6M429,316.9v-15.8h6.2v15.6c0,4.6,2.2,6.9,6,6.9s6-2.3,6-6.7v-15.8h6v15.6c0,8.4-4.7,12.5-12.1,12.5s-12-4.1-12-12.3M468,301h11.3c6.6,0,10.6,4,10.6,9.6h0c0,6.5-5,9.9-11.2,9.9h-4.7v8.3h-6v-27.8ZM478.9,315c3,0,4.8-1.8,4.8-4.2s-1.9-4.2-5-4.2h-4.7v8.4h4.9ZM501.3,301h20.9v5.5h-14.8v5.6h13v5.4h-13v5.9h15v5.4h-21.1v-27.8Z"/>
</svg>