<svg xmlns="http://www.w3.org/2000/svg" xml:space="preserve" style="fill-rule:evenodd;clip-rule:evenodd;stroke-linejoin:round;stroke-miterlimit:2" viewBox="0 0 73 35"><path d="m50.724 24.109-.001-10.845h3.114v10.845h-3.114Zm-4.159-4.063.001 4.063h-3.114v-4.063h3.113Zm-6.142-1.178c0 1.531-.633 2.823-1.898 3.877-1.266 1.054-2.815 1.58-4.649 1.58-1.835 0-3.385-.527-4.65-1.58-1.266-1.054-1.898-2.347-1.898-3.877V7.867h3.22v10.416c0 .881.323 1.632.971 2.253.647.621 1.432.931 2.357.931.923 0 1.709-.311 2.356-.931.647-.621.971-1.372.971-2.253V7.868h3.22v11Zm16.593 5.241V13.281h3.113v10.828h-3.113Zm13.564-7.84c-.668-.505-1.486-.808-2.452-.909-.484-.058-.907-.022-1.27.108-.362.13-.543.347-.543.65a.729.729 0 0 0 .032.227.521.521 0 0 0 .128.196c.058.059.119.117.181.172.075.064.157.118.245.163.094.051.19.098.288.14.23.095.465.179.704.25.099.029.235.072.405.129.134.046.27.09.406.13.415.134.824.286 1.226.456a6.03 6.03 0 0 1 1.045.595c.354.242.64.57.832.953.192.383.288.826.288 1.331 0 1.069-.384 1.913-1.152 2.535-.768.62-1.806.93-3.114.93-2.247 0-3.946-.447-5.098-1.342l1.366-2.23c.34.288.824.544 1.45.767.626.225 1.201.351 1.728.38.511.029.931-.029 1.258-.174.327-.144.49-.367.49-.67 0-.333-.178-.592-.533-.78-.355-.187-.917-.39-1.685-.607-.426-.13-.767-.234-1.023-.314a6.14 6.14 0 0 1-.939-.4c-.37-.188-.658-.379-.864-.574a2.676 2.676 0 0 1-.544-.769 2.371 2.371 0 0 1-.234-1.061c0-1.04.409-1.88 1.227-2.523.817-.642 1.893-.964 3.23-.964 1.735 0 3.192.39 4.372 1.17l-1.45 2.035Zm-58.391 8.498c-6.799 0-12.316-5.589-12.316-12.493C-.127 5.371 5.39-.219 12.189-.219c6.798 0 12.317 5.591 12.315 12.493 0 6.904-5.517 12.493-12.315 12.493Zm0-1.569c5.938 0 10.747-4.894 10.747-10.924 0-6.03-4.809-10.924-10.747-10.924-5.939 0-10.747 4.895-10.747 10.924 0 6.03 4.808 10.924 10.747 10.924Zm6.245-11.485-7.096-6.77 7.081-.406.015 7.176Z" style="fill:#3c4461"/><path d="m62.897 32.478-.023-.273h-.387v1.946h.426v-1.044c0-.163.05-.297.151-.402.09-.1.219-.157.354-.157.113 0 .207.023.284.07l.203-.308c-.11-.096-.265-.144-.464-.144-.21 0-.39.104-.544.312Zm-1.896.505h-.97c.054-.298.22-.447.498-.447.274 0 .431.149.472.447Zm.155-.535c-.152-.188-.364-.282-.634-.282-.28 0-.504.095-.67.284-.167.19-.25.434-.25.731 0 .299.083.542.247.729.166.186.39.28.673.28.368 0 .635-.16.8-.48l-.294-.21a.76.76 0 0 1-.222.25.501.501 0 0 1-.27.066c-.306 0-.478-.167-.516-.502h1.356a.692.692 0 0 0 .008-.12c0-.309-.076-.558-.228-.746Zm-2.722-.243h-.426v1.946h.425v-1.946h.001Zm.05-.61a.258.258 0 0 0-.077-.187.246.246 0 0 0-.184-.078.246.246 0 0 0-.184.078.257.257 0 0 0-.076.187c0 .072.025.134.076.184a.25.25 0 0 0 .184.076.25.25 0 0 0 .184-.076.25.25 0 0 0 .077-.184Zm-1.418 2.423-.234-.291a.268.268 0 0 1-.21.093c-.167 0-.25-.097-.25-.292l-.004-2.295h-.425v2.295c0 .197.06.357.18.478.12.122.282.183.487.183.197 0 .349-.057.456-.171Zm-2.433-1.813h-.425v1.946h.425v-1.946Zm.05-.61a.258.258 0 0 0-.077-.187.246.246 0 0 0-.184-.078.246.246 0 0 0-.184.078.258.258 0 0 0-.077.187.25.25 0 0 0 .077.184.25.25 0 0 0 .184.076.25.25 0 0 0 .184-.076.25.25 0 0 0 .077-.184Zm-2.887 2.102a.626.626 0 0 1-.19-.294v-.451a.618.618 0 0 1 .19-.293.453.453 0 0 1 .3-.111c.164 0 .294.059.39.178.095.12.143.27.143.452a.699.699 0 0 1-.143.451.473.473 0 0 1-.39.18.459.459 0 0 1-.3-.112Zm-.19-1.293v-1.171h-.418v2.918h.38l.02-.219a.741.741 0 0 0 .577.257.789.789 0 0 0 .638-.288c.16-.192.24-.433.24-.723s-.08-.532-.24-.724a.789.789 0 0 0-.638-.288.744.744 0 0 0-.559.238Zm-2.996.774c0-.181.047-.332.144-.452a.468.468 0 0 1 .385-.178c.16 0 .289.06.384.18.099.129.15.288.144.45a.701.701 0 0 1-.144.45.468.468 0 0 1-.385.18.467.467 0 0 1-.384-.179.698.698 0 0 1-.144-.451Zm1.475 0a1.031 1.031 0 0 0-.265-.722.881.881 0 0 0-.681-.29.883.883 0 0 0-.682.29 1.031 1.031 0 0 0-.265.722c0 .288.088.528.265.721.176.194.403.29.681.29a.882.882 0 0 0 .682-.29 1.03 1.03 0 0 0 .265-.721Zm-4.345-.689c-.13-.215-.331-.322-.602-.322a.735.735 0 0 0-.567.248l-.018-.21h-.388v1.946h.426v-1.168a.421.421 0 0 1 .126-.309.418.418 0 0 1 .306-.126c.115 0 .21.039.286.116a.401.401 0 0 1 .113.292v1.194h.429v-1.177c0-.233.192-.425.425-.425h.005a.379.379 0 0 1 .284.116.402.402 0 0 1 .114.292v1.194h.429v-1.245a.741.741 0 0 0-.2-.533.69.69 0 0 0-.517-.206.767.767 0 0 0-.651.323Zm-4.15 0c-.13-.215-.33-.322-.601-.322a.735.735 0 0 0-.567.248l-.02-.21h-.386v1.946h.425v-1.168a.42.42 0 0 1 .126-.309.417.417 0 0 1 .307-.126c.115 0 .21.039.285.116a.402.402 0 0 1 .114.292v1.194h.428v-1.174a.43.43 0 0 1 .428-.428h.002c.115 0 .21.039.285.116a.402.402 0 0 1 .114.292v1.194h.428v-1.245a.736.736 0 0 0-.199-.533.69.69 0 0 0-.517-.206.767.767 0 0 0-.651.323h-.001Zm-2.865-.284H38.3v1.946h.425v-1.946Zm.05-.61a.258.258 0 0 0-.077-.187.246.246 0 0 0-.184-.078.246.246 0 0 0-.184.078.258.258 0 0 0-.077.187.25.25 0 0 0 .077.184.25.25 0 0 0 .184.076.25.25 0 0 0 .184-.076.246.246 0 0 0 .076-.184h.001Zm-1.74.566c.094-.16.142-.333.142-.52a.585.585 0 0 0-.075-.309.24.24 0 0 0-.216-.123h-.005a.256.256 0 0 0-.255.255v.005a.259.259 0 0 0 .074.188c.05.052.11.077.182.077.025 0 .038.028.038.082a.526.526 0 0 1-.073.25c-.048.087-.11.133-.184.136v.202c.154-.003.277-.084.372-.243Zm-1.16 1.857-.235-.291a.268.268 0 0 1-.21.093c-.166 0-.25-.097-.25-.292l-.004-2.295h-.425v2.295c0 .197.06.357.18.478.12.122.283.183.487.183.197 0 .349-.057.456-.171h.001Zm-4.315-1.035h-.97c.054-.298.22-.447.498-.447.274 0 .431.149.472.447Zm.155-.535c-.152-.188-.363-.282-.634-.282-.28 0-.504.095-.67.284-.167.19-.25.434-.25.731 0 .299.083.542.247.729.166.186.389.28.673.28.368 0 .635-.16.8-.48l-.294-.21a.772.772 0 0 1-.222.25.501.501 0 0 1-.27.066c-.305 0-.477-.167-.516-.502h1.356a.692.692 0 0 0 .008-.12c0-.309-.076-.558-.228-.746Zm-3.95 1.181a.698.698 0 0 1-.144-.451c0-.181.048-.332.144-.452a.468.468 0 0 1 .385-.178c.112 0 .213.037.303.113.09.076.156.177.191.29v.452a.617.617 0 0 1-.191.292.462.462 0 0 1-.303.113.469.469 0 0 1-.385-.179Zm.88-1.221a.741.741 0 0 0-.564-.242.789.789 0 0 0-.638.288c-.16.192-.24.434-.24.724s.08.531.24.723c.16.192.372.288.638.288a.741.741 0 0 0 .578-.257l.023.218h.376v-2.917h-.414v1.174l.001.001Zm42.765-3.026a.54.54 0 0 0 .22-.441.437.437 0 0 0-.21-.401 1.261 1.261 0 0 0-.188-.101 1.843 1.843 0 0 0-.227-.078l-.111-.037-.096-.033a.426.426 0 0 1-.09-.04l-.061-.048a.161.161 0 0 1-.05-.06.186.186 0 0 1-.014-.07c0-.068.04-.12.117-.157a.472.472 0 0 1 .259-.041.7.7 0 0 1 .398.17l.23-.3a1.29 1.29 0 0 0-.704-.213.807.807 0 0 0-.52.17.524.524 0 0 0-.213.425c0 .05.008.097.023.14a.67.67 0 0 0 .05.113.304.304 0 0 0 .09.092l.101.07c.04.024.083.044.127.06.059.024.1.039.123.047l.13.042a1.6 1.6 0 0 1 .307.127c.066.04.099.097.099.17 0 .07-.034.124-.101.164a.461.461 0 0 1-.263.053 1.058 1.058 0 0 1-.324-.072.609.609 0 0 1-.243-.153l-.21.3c.1.091.219.158.348.197.15.052.301.078.452.078a.857.857 0 0 0 .552-.173h-.001Zm-2.099.002-.233-.292a.267.267 0 0 1-.211.093c-.166 0-.25-.096-.25-.29l-.003-2.296h-.425v2.295c0 .197.06.357.18.478a.65.65 0 0 0 .486.183c.197 0 .349-.056.456-.17v-.001Zm-2.628-1.035h-.97c.054-.298.22-.447.498-.447.274 0 .431.15.472.447Zm.155-.535c-.152-.188-.363-.282-.634-.282-.281 0-.505.095-.67.284-.166.19-.25.434-.25.732s.083.54.247.727c.165.187.389.28.673.28.368 0 .635-.16.8-.479l-.295-.21a.78.78 0 0 1-.221.25.501.501 0 0 1-.27.066c-.305 0-.478-.167-.516-.502h1.356a.692.692 0 0 0 .008-.12c0-.31-.076-.558-.228-.746Zm-3.99-.013-.023-.23h-.388v1.945h.426v-1.155a.42.42 0 0 1 .136-.317.465.465 0 0 1 .331-.13c.128 0 .234.04.317.12.082.08.124.182.124.303v1.18h.43v-1.23a.735.735 0 0 0-.212-.545.733.733 0 0 0-.536-.21c-.248 0-.45.09-.606.269h.001Zm-2.97 0-.023-.23h-.387v1.945h.426v-1.155c0-.125.045-.23.135-.317a.461.461 0 0 1 .332-.13c.127 0 .233.04.316.12.083.08.125.182.125.303v1.18h.428v-1.23a.737.737 0 0 0-.21-.545.729.729 0 0 0-.537-.21c-.247 0-.45.09-.605.269Zm-2.989.743a.7.7 0 0 1 .144-.451.47.47 0 0 1 .386-.18c.16 0 .289.06.385.182a.699.699 0 0 1 .143.449.699.699 0 0 1-.144.449.469.469 0 0 1-.384.181.47.47 0 0 1-.386-.18.697.697 0 0 1-.144-.45Zm1.476 0c0-.288-.089-.528-.264-.722a.883.883 0 0 0-.682-.29.885.885 0 0 0-.683.29 1.036 1.036 0 0 0-.264.722c0 .288.088.528.264.721a.879.879 0 0 0 .683.29.882.882 0 0 0 .682-.29c.175-.193.264-.433.264-.721Zm-3.062-.973h-.425v1.945h.425v-1.945Zm.05-.61a.258.258 0 0 0-.077-.187.252.252 0 0 0-.184-.078.252.252 0 0 0-.184.078.254.254 0 0 0-.076.186c0 .073.026.134.076.185.052.05.113.076.184.076a.254.254 0 0 0 .184-.076.25.25 0 0 0 .077-.184Zm-1.847 2.42a.538.538 0 0 0 .219-.44.436.436 0 0 0-.21-.401 1.31 1.31 0 0 0-.415-.179l-.111-.037-.095-.033a.426.426 0 0 1-.09-.04.935.935 0 0 1-.062-.048.171.171 0 0 1-.05-.06.185.185 0 0 1-.013-.07c0-.068.039-.12.117-.157a.467.467 0 0 1 .258-.041.706.706 0 0 1 .4.17l.229-.3a1.296 1.296 0 0 0-.705-.213.807.807 0 0 0-.52.17.523.523 0 0 0-.212.425c0 .05.008.097.023.14a.67.67 0 0 0 .05.113.304.304 0 0 0 .09.092l.101.07a2.31 2.31 0 0 0 .249.107l.13.042a1.6 1.6 0 0 1 .307.127c.067.04.1.097.1.17 0 .07-.035.124-.102.164a.458.458 0 0 1-.262.053 1.058 1.058 0 0 1-.324-.072.592.592 0 0 1-.243-.153l-.211.3c.082.08.198.146.348.197.151.052.302.078.453.078a.854.854 0 0 0 .551-.173v-.001Zm-2.498 0a.538.538 0 0 0 .219-.44.506.506 0 0 0-.052-.236.437.437 0 0 0-.157-.165 1.348 1.348 0 0 0-.416-.179 3.545 3.545 0 0 0-.11-.037c-.021-.006-.053-.018-.097-.033a.426.426 0 0 1-.09-.04.917.917 0 0 1-.061-.048.154.154 0 0 1-.05-.06.168.168 0 0 1-.013-.07c0-.068.038-.12.116-.157a.474.474 0 0 1 .26-.041.7.7 0 0 1 .398.17l.23-.3a1.296 1.296 0 0 0-.705-.213.812.812 0 0 0-.52.17.526.526 0 0 0-.19.565.67.67 0 0 0 .05.113.304.304 0 0 0 .09.092l.102.07c.04.024.083.044.127.06.058.024.1.039.122.047l.13.042c.139.045.24.087.307.127.066.04.1.097.1.17 0 .07-.034.124-.102.164a.458.458 0 0 1-.262.053 1.058 1.058 0 0 1-.324-.072.602.602 0 0 1-.243-.153l-.211.3c.1.091.219.158.349.197.15.052.3.078.452.078a.854.854 0 0 0 .551-.173v-.001Zm-2.689-1.032h-.969c.053-.298.219-.447.497-.447.273 0 .43.15.472.447Zm.155-.535c-.152-.188-.363-.282-.634-.282-.281 0-.505.095-.67.284-.167.19-.25.434-.25.732s.082.54.247.727c.165.187.39.28.673.28.368 0 .635-.16.8-.479l-.295-.21a.76.76 0 0 1-.222.25.492.492 0 0 1-.268.066c-.306 0-.48-.167-.517-.502h1.356a.692.692 0 0 0 .008-.12c0-.31-.076-.558-.228-.746Zm-2.92-.813a.195.195 0 0 1 .163-.083c.095 0 .17.039.226.117l.237-.265a.583.583 0 0 0-.47-.21.633.633 0 0 0-.456.183.594.594 0 0 0-.188.443v.385h-.322v.331h.322v1.614h.425v-1.614h.487v-.33h-.487v-.359a.342.342 0 0 1 .063-.212Zm-3.224 1.543c0-.182.048-.332.144-.451a.468.468 0 0 1 .385-.18c.16 0 .289.06.385.182.096.12.144.27.144.449a.699.699 0 0 1-.144.449.466.466 0 0 1-.385.181.47.47 0 0 1-.386-.18.702.702 0 0 1-.143-.45Zm1.475 0c0-.288-.088-.528-.264-.722a.883.883 0 0 0-.682-.29.882.882 0 0 0-.682.29 1.031 1.031 0 0 0-.265.722c0 .288.089.528.265.721.176.194.403.29.682.29a.882.882 0 0 0 .682-.29 1.03 1.03 0 0 0 .264-.721Zm-3.62-.7-.023-.273h-.388v1.945h.426v-1.042c0-.164.05-.298.151-.403.1-.105.22-.157.354-.157.113 0 .208.023.284.07l.203-.308c-.11-.096-.264-.144-.463-.144-.21 0-.392.104-.545.311l.001.001Zm-2.76 1.22a.61.61 0 0 1-.19-.295v-.451a.604.604 0 0 1 .19-.293.453.453 0 0 1 .3-.111c.163 0 .292.059.389.179.096.119.143.27.143.45a.694.694 0 0 1-.143.452.473.473 0 0 1-.39.179.452.452 0 0 1-.3-.11h.001Zm-.19-1.294v-.199h-.419v2.918h.418v-1.17a.747.747 0 0 0 .56.236.789.789 0 0 0 .638-.288c.16-.192.24-.433.24-.723s-.08-.532-.24-.724a.79.79 0 0 0-.639-.288.74.74 0 0 0-.559.238h.001Zm-3.415 1.612a.539.539 0 0 0 .219-.441.436.436 0 0 0-.208-.401 1.348 1.348 0 0 0-.416-.179l-.112-.037-.096-.033a.426.426 0 0 1-.09-.04.917.917 0 0 1-.061-.048.154.154 0 0 1-.05-.06.168.168 0 0 1-.013-.07c0-.068.039-.12.116-.157a.474.474 0 0 1 .26-.041.7.7 0 0 1 .398.17l.23-.3a1.146 1.146 0 0 0-.324-.153 1.27 1.27 0 0 0-.382-.06.812.812 0 0 0-.519.17.526.526 0 0 0-.19.565.67.67 0 0 0 .05.113.304.304 0 0 0 .09.092l.102.07c.04.024.083.044.127.06.059.024.1.039.122.047l.13.042c.139.045.24.087.307.127.067.04.1.097.1.17 0 .07-.034.124-.102.164a.458.458 0 0 1-.262.053 1.058 1.058 0 0 1-.324-.072.602.602 0 0 1-.243-.153l-.211.3c.1.091.219.158.349.197.15.052.301.078.452.078a.854.854 0 0 0 .551-.173Zm-2.689-1.033h-.97c.054-.298.22-.447.498-.447.274 0 .43.15.472.447Zm.155-.535c-.152-.188-.364-.282-.634-.282-.281 0-.505.095-.67.284-.167.19-.25.434-.25.732s.082.54.247.727c.165.187.39.28.673.28.368 0 .635-.16.8-.479l-.295-.21a.76.76 0 0 1-.222.25.492.492 0 0 1-.268.066c-.307 0-.48-.167-.517-.502h1.357a.69.69 0 0 0 .007-.12c0-.31-.076-.558-.228-.746Zm-2.5 1.702v-.392h-1.02v-2.525h-.44v2.917h1.46Z" style="fill:#3c4461;fill-rule:nonzero"/><path d="M58.691 10.715c-1.315 0-2.379-1.081-2.379-2.416 0-1.333 1.065-2.415 2.378-2.415 1.314 0 2.38 1.082 2.38 2.415 0 1.335-1.066 2.416-2.38 2.416Zm-41.15 7.999c-1.286 0-2.327-1.058-2.327-2.364 0-1.305 1.042-2.363 2.328-2.363 1.286 0 2.328 1.058 2.328 2.363 0 1.306-1.042 2.364-2.329 2.364Z" style="fill:#ca4461"/><path d="M10.395 4.537h8.008L4.27 18.89v-8.108l6.125-6.245Zm37.556 8.727h5.885L43.45 23.86v-5.986l4.501-4.61Z" style="fill:#5d6092"/></svg>