<svg xmlns="http://www.w3.org/2000/svg" viewBox="0 0 488.28 222.1"><path d="M186,145a40.41,40.41,0,0,1-17.69-12.27q-6.62-8.13-6.61-19.65l.17-3.72h24.9l-.17,2.71q0,7.45,6.6,11.85t18.46,4.4q12.53,0,18.12-3.3t5.59-8.89a10.66,10.66,0,0,0-3.64-8.21,26.75,26.75,0,0,0-9.15-5.25q-5.51-1.95-15.15-4.66a199.51,199.51,0,0,1-22.19-7.45A39.12,39.12,0,0,1,170.68,80q-6.1-7-6.1-18.55,0-15.91,12.87-24.21t34.21-8.3q20.15,0,32.94,8.55t12.78,25.66v2H233V63.65q0-6.42-5.84-10.16t-15.84-3.72q-10.66,0-16.34,2.88t-5.67,8a8.38,8.38,0,0,0,3.38,6.68,27.35,27.35,0,0,0,8.47,4.58q5.09,1.77,14.39,4.32a195.2,195.2,0,0,1,22.78,7.36,41.69,41.69,0,0,1,15.33,10.76q6.43,7.11,6.43,18.62,0,18.63-13.29,27.44t-36.33,8.8A69.32,69.32,0,0,1,186,145Z" fill="#ffffff"></path><path d="M323.94,84h59.78v63.16H366.78l-2.2-12.87a53,53,0,0,1-17.11,11.35q-9,3.56-21.84,3.55-26.92,0-41.57-14.73T269.41,89.06q0-30,15.58-45.05t44-15.07a77.91,77.91,0,0,1,27.52,4.66,44.19,44.19,0,0,1,19.81,14q7.36,9.41,7.37,22.95H358.31q0-9.48-8.38-15.16t-20.07-5.67q-17.78,0-26.5,9.48t-8.72,27.27V91.6q0,18.63,8,27.68t24.64,9.06q13.73,0,22.69-6.52a21.13,21.13,0,0,0,9.15-17.69H323.94Z" fill="#ffffff"></path><path d="M400.14,31H424.7V125.8h62.65v21.34H400.14Z" fill="#ffffff"></path><path d="M165.56,193.05H161.4V162.33h4.16Z" fill="rgba(255,255,255,0.6)"></path><path d="M198,183c.15.38.3.76.44,1.15.15-.4.3-.79.45-1.15s.34-.73.54-1.1l10.4-18.9a1.34,1.34,0,0,1,.58-.6,2.72,2.72,0,0,1,.86-.1h3.06v30.72H210.7V170.47c0-.3,0-.62,0-1s0-.69.06-1l-10.52,19.21a1.66,1.66,0,0,1-1.51,1h-.6a1.65,1.65,0,0,1-1.5-1L185.89,168.4c0,.37.07.73.1,1.09s0,.68,0,1v22.58h-3.65V162.33h3.07a2.77,2.77,0,0,1,.86.1,1.34,1.34,0,0,1,.58.6L197.49,182A6.72,6.72,0,0,1,198,183Z" fill="rgba(255,255,255,0.6)"></path><path d="M246,183c.15.38.3.76.44,1.15.15-.4.3-.79.45-1.15s.34-.73.54-1.1l10.4-18.9a1.29,1.29,0,0,1,.58-.6,2.72,2.72,0,0,1,.86-.1h3.06v30.72h-3.64V170.47c0-.3,0-.62,0-1s0-.69.06-1l-10.53,19.21a1.63,1.63,0,0,1-1.5,1h-.6a1.65,1.65,0,0,1-1.5-1L233.92,168.4c0,.37.07.73.1,1.09s0,.68,0,1v22.58H230.4V162.33h3.07a2.77,2.77,0,0,1,.86.1,1.28,1.28,0,0,1,.57.6L245.52,182A7.69,7.69,0,0,1,246,183Z" fill="rgba(255,255,255,0.6)"></path><path d="M307,177.7a18,18,0,0,1-1.09,6.34,14.56,14.56,0,0,1-3.09,5,13.88,13.88,0,0,1-4.79,3.23,16.28,16.28,0,0,1-6.19,1.14,16.11,16.11,0,0,1-6.17-1.14,13.88,13.88,0,0,1-4.79-3.23,14.54,14.54,0,0,1-3.08-5,18.82,18.82,0,0,1,0-12.68,14.58,14.58,0,0,1,3.08-5,13.93,13.93,0,0,1,4.79-3.25,15.92,15.92,0,0,1,6.17-1.16,16.1,16.1,0,0,1,6.19,1.16,13.93,13.93,0,0,1,4.79,3.25,14.61,14.61,0,0,1,3.09,5A18,18,0,0,1,307,177.7Zm-4.27,0a15.45,15.45,0,0,0-.77-5.08,10.65,10.65,0,0,0-2.19-3.81,9.51,9.51,0,0,0-3.43-2.39,12.56,12.56,0,0,0-9,0,9.72,9.72,0,0,0-3.44,2.39,10.81,10.81,0,0,0-2.2,3.81,17.11,17.11,0,0,0,0,10.15,10.77,10.77,0,0,0,2.2,3.8,9.57,9.57,0,0,0,3.44,2.38,12.7,12.7,0,0,0,9,0,9.37,9.37,0,0,0,3.43-2.38,10.6,10.6,0,0,0,2.19-3.8A15.34,15.34,0,0,0,302.7,177.7Z" fill="rgba(255,255,255,0.6)"></path><path d="M321.23,193.05V162.33H331a18.45,18.45,0,0,1,4.88.56,9.36,9.36,0,0,1,3.36,1.58,6.28,6.28,0,0,1,2,2.52,8.53,8.53,0,0,1,.64,3.36,6.69,6.69,0,0,1-.36,2.18,6.6,6.6,0,0,1-1.07,2,7.8,7.8,0,0,1-1.8,1.6,10.09,10.09,0,0,1-2.54,1.16,9.46,9.46,0,0,1,5.08,2.42,6.38,6.38,0,0,1,1.72,4.63,8.58,8.58,0,0,1-.72,3.56,7.59,7.59,0,0,1-2.1,2.77,10,10,0,0,1-3.39,1.79,15.32,15.32,0,0,1-4.58.63Zm4.16-17h5.49a10.92,10.92,0,0,0,3-.38,6.24,6.24,0,0,0,2.14-1.08,4.16,4.16,0,0,0,1.25-1.66,5.5,5.5,0,0,0,.41-2.13,4.74,4.74,0,0,0-1.63-4,8.28,8.28,0,0,0-5.06-1.26h-5.64Zm0,3v10.7H332a10.14,10.14,0,0,0,3-.41,5.71,5.71,0,0,0,2.1-1.14,4.42,4.42,0,0,0,1.21-1.76,6.24,6.24,0,0,0,.39-2.24,4.6,4.6,0,0,0-1.68-3.76,7.88,7.88,0,0,0-5.1-1.39Z" fill="rgba(255,255,255,0.6)"></path><path d="M362.48,193.05h-4.16V162.33h4.16Z" fill="rgba(255,255,255,0.6)"></path><path d="M383.45,189.56h13.3v3.49H379.29V162.33h4.16Z" fill="rgba(255,255,255,0.6)"></path><path d="M414.84,193.05h-4.16V162.33h4.16Z" fill="rgba(255,255,255,0.6)"></path><path d="M450.58,162.33v3.38H435.83v10.21h11.95v3.26H435.83v10.49h14.75v3.38H431.65V162.33Z" fill="rgba(255,255,255,0.6)"></path><path d="M469.71,180.23v12.82h-4.14V162.33h8.69a18.62,18.62,0,0,1,5,.59,9.58,9.58,0,0,1,3.51,1.7,6.89,6.89,0,0,1,2.05,2.69,9.06,9.06,0,0,1,.66,3.53,8.86,8.86,0,0,1-.51,3,8.1,8.1,0,0,1-1.49,2.54,9,9,0,0,1-2.38,1.92,11.74,11.74,0,0,1-3.19,1.2,4.38,4.38,0,0,1,1.38,1.31l9,12.2h-3.69a1.81,1.81,0,0,1-1.67-.88l-8-11a2.33,2.33,0,0,0-.79-.73,2.89,2.89,0,0,0-1.29-.23Zm0-3h4.35a10.69,10.69,0,0,0,3.21-.44,6.4,6.4,0,0,0,2.31-1.25,5,5,0,0,0,1.41-1.91,6.39,6.39,0,0,0,.47-2.47,4.89,4.89,0,0,0-1.81-4.14,8.76,8.76,0,0,0-5.39-1.39h-4.55Z" fill="rgba(255,255,255,0.6)"></path><polygon points="110.78 0 35.09 32.77 35.09 68.26 81.58 96.83 81.58 118.18 110.78 106.1 110.78 0" fill="#ff4d6d"></polygon><path d="M77.86,98.91,5.58,54.49v48.73a153.94,153.94,0,0,0,29.1,56.09,155.78,155.78,0,0,0,13.4,14.49V132l29.78-12.32Z" fill="#e03558"></path><path d="M81.58,122.21h0L51.8,134.53v42.7a156.75,156.75,0,0,0,28.81,20.35,155.5,155.5,0,0,0,50.6,17.15v-113l-16.71,6.91h0Z" fill="#ff4d6d"></path><path d="M0,108.78a164.74,164.74,0,0,0,8.9,21.79c1.68,3.52,3.48,7,5.41,10.35s3.87,6.73,6,10a166.4,166.4,0,0,0,13.86,18.53,144.69,144.69,0,0,0,16.2,16.36c2.84,2.55,5.88,4.88,8.95,7.16s6.33,4.31,9.62,6.3a154.27,154.27,0,0,0,20.63,10.38,188.89,188.89,0,0,0,45.12,12.29,113.78,113.78,0,0,1-23.8-1.26A139.88,139.88,0,0,1,87.57,215a124.4,124.4,0,0,1-42-23.61,140.57,140.57,0,0,1-16.8-17.45c-2.51-3.15-4.9-6.41-7.14-9.75a119,119,0,0,1-6.29-10.3A140.62,140.62,0,0,1,5.48,132,107.93,107.93,0,0,1,0,108.78Z" fill="rgba(255,255,255,0.15)"></path></svg>